<svg width="8" height="14" viewBox="0 0 8 14" fill="none" xmlns="http://www.w3.org/2000/svg">
<path d="M7.84399 7.29632C7.84399 7.03265 7.74606 6.80664 7.53512 6.61077L1.67407 0.870256C1.50834 0.70452 1.2974 0.614119 1.04879 0.614119C0.551583 0.614119 0.152309 1.00586 0.152309 1.5106C0.152309 1.75921 0.257778 1.97768 0.423514 2.15095L5.70449 7.29632L0.423514 12.4417C0.257778 12.615 0.152309 12.841 0.152309 13.082C0.152309 13.5868 0.551583 13.9785 1.04879 13.9785C1.2974 13.9785 1.50834 13.8881 1.67407 13.7224L7.53512 7.9894C7.74606 7.78599 7.84399 7.55999 7.84399 7.29632Z" fill="#1C1C1E"/>
</svg>
