<svg width="23" height="22" viewBox="0 0 23 22" fill="none" xmlns="http://www.w3.org/2000/svg">
    <path d="M3.93042 21.3508H19.0586C21.4426 21.3508 22.6841 20.1204 22.6841 17.7693V4.39893C22.6841 2.04785 21.4426 0.817383 19.0586 0.817383H3.93042C1.55737 0.817383 0.315918 2.03687 0.315918 4.39893V17.7693C0.315918 20.1204 1.55737 21.3508 3.93042 21.3508ZM3.91943 19.1646C3.00757 19.1646 2.5022 18.6921 2.5022 17.7253V7.61792C2.5022 6.65112 3.00757 6.17871 3.91943 6.17871H19.0696C19.9814 6.17871 20.4868 6.65112 20.4868 7.61792V17.7253C20.4868 18.6921 19.9814 19.1646 19.0696 19.1646H3.91943ZM9.37964 9.96899H10.0278C10.4233 9.96899 10.5552 9.84814 10.5552 9.46362V8.81543C10.5552 8.41992 10.4233 8.29907 10.0278 8.29907H9.37964C8.98413 8.29907 8.85229 8.41992 8.85229 8.81543V9.46362C8.85229 9.84814 8.98413 9.96899 9.37964 9.96899ZM12.9722 9.96899H13.6204C14.0049 9.96899 14.1367 9.84814 14.1367 9.46362V8.81543C14.1367 8.41992 14.0049 8.29907 13.6204 8.29907H12.9722C12.5767 8.29907 12.4448 8.41992 12.4448 8.81543V9.46362C12.4448 9.84814 12.5767 9.96899 12.9722 9.96899ZM16.5537 9.96899H17.2019C17.5974 9.96899 17.7292 9.84814 17.7292 9.46362V8.81543C17.7292 8.41992 17.5974 8.29907 17.2019 8.29907H16.5537C16.1692 8.29907 16.0374 8.41992 16.0374 8.81543V9.46362C16.0374 9.84814 16.1692 9.96899 16.5537 9.96899ZM5.7981 13.5066H6.4353C6.83081 13.5066 6.96265 13.3857 6.96265 12.9902V12.342C6.96265 11.9575 6.83081 11.8367 6.4353 11.8367H5.7981C5.40259 11.8367 5.27075 11.9575 5.27075 12.342V12.9902C5.27075 13.3857 5.40259 13.5066 5.7981 13.5066ZM9.37964 13.5066H10.0278C10.4233 13.5066 10.5552 13.3857 10.5552 12.9902V12.342C10.5552 11.9575 10.4233 11.8367 10.0278 11.8367H9.37964C8.98413 11.8367 8.85229 11.9575 8.85229 12.342V12.9902C8.85229 13.3857 8.98413 13.5066 9.37964 13.5066ZM12.9722 13.5066H13.6204C14.0049 13.5066 14.1367 13.3857 14.1367 12.9902V12.342C14.1367 11.9575 14.0049 11.8367 13.6204 11.8367H12.9722C12.5767 11.8367 12.4448 11.9575 12.4448 12.342V12.9902C12.4448 13.3857 12.5767 13.5066 12.9722 13.5066ZM16.5537 13.5066H17.2019C17.5974 13.5066 17.7292 13.3857 17.7292 12.9902V12.342C17.7292 11.9575 17.5974 11.8367 17.2019 11.8367H16.5537C16.1692 11.8367 16.0374 11.9575 16.0374 12.342V12.9902C16.0374 13.3857 16.1692 13.5066 16.5537 13.5066ZM5.7981 17.0332H6.4353C6.83081 17.0332 6.96265 16.9124 6.96265 16.5278V15.8796C6.96265 15.4841 6.83081 15.3633 6.4353 15.3633H5.7981C5.40259 15.3633 5.27075 15.4841 5.27075 15.8796V16.5278C5.27075 16.9124 5.40259 17.0332 5.7981 17.0332ZM9.37964 17.0332H10.0278C10.4233 17.0332 10.5552 16.9124 10.5552 16.5278V15.8796C10.5552 15.4841 10.4233 15.3633 10.0278 15.3633H9.37964C8.98413 15.3633 8.85229 15.4841 8.85229 15.8796V16.5278C8.85229 16.9124 8.98413 17.0332 9.37964 17.0332ZM12.9722 17.0332H13.6204C14.0049 17.0332 14.1367 16.9124 14.1367 16.5278V15.8796C14.1367 15.4841 14.0049 15.3633 13.6204 15.3633H12.9722C12.5767 15.3633 12.4448 15.4841 12.4448 15.8796V16.5278C12.4448 16.9124 12.5767 17.0332 12.9722 17.0332Z"
          fill="#64748B"/>
</svg>
