<svg width="71" height="71" viewBox="0 0 71 71" fill="none" xmlns="http://www.w3.org/2000/svg">
    <path d="M17.6708 49.3544H53.307C55.6025 49.3544 57.0065 48.1063 57.0065 46.2342C57.0065 43.8719 54.867 41.8438 52.8612 39.9271C51.4349 38.5008 50.9892 35.6258 50.7886 33.1297C50.7217 31.6811 50.6103 30.2994 50.432 28.9844C49.2508 29.4748 47.9582 29.7645 46.5987 29.7645C40.6705 29.7645 35.7897 24.8837 35.7897 18.9332C35.7897 16.192 36.8372 13.6736 38.531 11.7792C37.6618 11.3112 36.6143 11.0215 35.4777 11.0215C32.2016 11.0215 29.7724 13.2947 28.8363 16.2365C23.0864 18.3092 20.6794 24.0591 20.3451 32.216C20.0554 35.1801 19.6765 38.3894 18.1165 39.9271C16.1107 41.8438 13.9712 43.8719 13.9712 46.2342C13.9712 48.1063 15.3752 49.3544 17.6708 49.3544ZM46.621 26.6221C50.8109 26.6221 54.3099 23.1454 54.3099 18.9332C54.3099 14.7211 50.8109 11.2443 46.621 11.2443C42.4088 11.2443 38.9321 14.7211 38.9321 18.9332C38.9321 23.1454 42.4088 26.6221 46.621 26.6221ZM35.5 58.5364C39.4447 58.5364 42.3197 55.706 42.6094 52.4745H28.3683C28.658 55.706 31.533 58.5364 35.5 58.5364Z"
          fill="white"/>
</svg>
