<svg width="78" height="78" viewBox="0 0 78 78" fill="none" xmlns="http://www.w3.org/2000/svg">
    <path d="M38.9755 63.4021C52.8578 63.4021 64.3163 51.9437 64.3163 38.0614C64.3163 24.2035 52.8333 12.7451 38.951 12.7451C25.0932 12.7451 13.6592 24.2035 13.6592 38.0614C13.6592 51.9437 25.1177 63.4021 38.9755 63.4021ZM29.843 47.659V37.7676C29.843 36.0292 30.5531 35.1233 31.9731 34.9764V32.1363C31.9731 27.4354 34.8133 24.3015 38.951 24.3015C43.1378 24.3015 45.9534 27.4354 45.9534 32.1363V34.9764C47.3735 35.1233 48.0835 36.0292 48.0835 37.7676V47.659C48.0835 49.6177 47.2021 50.4992 45.4147 50.4992H32.5118C30.7245 50.4992 29.843 49.6177 29.843 47.659ZM35.0091 34.9275H42.9174V31.867C42.9174 29.0758 41.326 27.2395 38.951 27.2395C36.5761 27.2395 35.0091 29.1003 35.0091 31.867V34.9275Z"
          fill="white"/>
</svg>
